<?xml version="1.0" encoding="utf-8"?>
<!-- Generator: Adobe Illustrator 17.0.0, SVG Export Plug-In . SVG Version: 6.00 Build 0)  -->
<!DOCTYPE svg PUBLIC "-//W3C//DTD SVG 1.1//EN" "http://www.w3.org/Graphics/SVG/1.1/DTD/svg11.dtd">
<svg version="1.1" id="Camada_1" xmlns="http://www.w3.org/2000/svg" xmlns:xlink="http://www.w3.org/1999/xlink" x="0px" y="0px"
	 width="16.188px" height="16.188px" viewBox="0 0 16.188 16.188" enable-background="new 0 0 16.188 16.188" xml:space="preserve">
<g id="Grupo_169" transform="translate(1 1)">
	<g id="Icon_feather-search">
		<g id="Caminho_4">
			<path fill="#FFFFFF" d="M6.121,13.244c-3.927,0-7.122-3.195-7.122-7.123C-1.001,2.195,2.194-1,6.121-1
				c3.927,0,7.123,3.195,7.123,7.122C13.243,10.049,10.048,13.244,6.121,13.244z M6.122,1C3.297,1,0.999,3.298,0.999,6.122
				c0,2.825,2.298,5.123,5.122,5.123c2.825,0,5.123-2.298,5.123-5.123C11.243,3.298,8.946,1.001,6.122,1z"/>
		</g>
		<g id="Caminho_5">
			<path fill="#FFFFFF" d="M13.77,14.77c-0.256,0-0.512-0.098-0.707-0.293l-3.329-3.329c-0.391-0.391-0.391-1.023,0-1.414
				s1.023-0.391,1.414,0l3.329,3.329c0.391,0.391,0.391,1.023,0,1.414C14.281,14.672,14.026,14.77,13.77,14.77z"/>
		</g>
	</g>
</g>
</svg>
