<?xml version="1.0" encoding="utf-8"?>
<!-- Generator: Adobe Illustrator 17.0.0, SVG Export Plug-In . SVG Version: 6.00 Build 0)  -->
<!DOCTYPE svg PUBLIC "-//W3C//DTD SVG 1.1//EN" "http://www.w3.org/Graphics/SVG/1.1/DTD/svg11.dtd">
<svg version="1.1" id="Camada_1" xmlns="http://www.w3.org/2000/svg" xmlns:xlink="http://www.w3.org/1999/xlink" x="0px" y="0px"
	 width="21.62px" height="16.849px" viewBox="0 0 21.62 16.849" enable-background="new 0 0 21.62 16.849" xml:space="preserve">
<g id="Icon_feather-truck" transform="translate(-0.5 -3.5)">
	<g id="Caminho_203">
		<path fill="#455465" d="M13.041,15.5H1.5c-0.552,0-1-0.447-1-1v-10c0-0.552,0.448-1,1-1h11.542c0.553,0,1,0.448,1,1v10
			C14.041,15.052,13.594,15.5,13.041,15.5z M2.5,13.5h9.542v-8H2.5V13.5z"/>
	</g>
	<g id="Caminho_204">
		<path fill="#455465" d="M21.12,15.502h-5.386c-0.553,0-1-0.447-1-1V8.347c0-0.552,0.447-1,1-1h3.078
			c0.266,0,0.52,0.105,0.707,0.293l2.308,2.308c0.188,0.188,0.293,0.442,0.293,0.707v3.847C22.12,15.054,21.672,15.502,21.12,15.502
			z M16.734,13.502h3.386v-2.433l-1.722-1.722h-1.664V13.502z"/>
	</g>
	<g id="Caminho_205">
		<path fill="#455465" d="M4.963,20.348c-1.612,0-2.923-1.312-2.923-2.923c0-1.61,1.311-2.922,2.921-2.924
			c1.613,0,2.924,1.311,2.925,2.922C7.886,19.036,6.575,20.348,4.963,20.348z M4.962,16.502c-0.508,0-0.922,0.415-0.922,0.924
			s0.414,0.923,0.923,0.923c0.509,0,0.923-0.414,0.923-0.923S5.471,16.502,4.962,16.502z"/>
	</g>
	<g id="Caminho_206">
		<path fill="#455465" d="M17.658,20.348c-1.611,0-2.923-1.312-2.923-2.923c0-1.61,1.311-2.922,2.921-2.924
			c1.612,0,2.924,1.312,2.924,2.924c0.001,0.778-0.302,1.513-0.853,2.064C19.174,20.044,18.44,20.348,17.658,20.348z M17.657,16.502
			c-0.508,0-0.922,0.415-0.922,0.924s0.414,0.923,0.923,0.923c0.51,0,0.924-0.414,0.924-0.923
			C18.581,16.917,18.165,16.502,17.657,16.502z"/>
	</g>
</g>
</svg>
