<svg xmlns="http://www.w3.org/2000/svg" class="svg-whatsapp" width="18.071" height="18.071" viewBox="0 0 18.071 18.071">
  <g data-name="Grupo 164" transform="translate(-58 -14)">
    <path id="Icon_awesome-whatsapp" data-name="Icon awesome-whatsapp" d="M15.365,4.876A8.958,8.958,0,0,0,1.271,15.682L0,20.321l4.748-1.246a8.928,8.928,0,0,0,4.28,1.089h0a9.041,9.041,0,0,0,9.04-8.955,8.99,8.99,0,0,0-2.707-6.333ZM9.032,18.655A7.43,7.43,0,0,1,5.24,17.619l-.27-.161L2.154,18.2l.75-2.747-.177-.282a7.458,7.458,0,1,1,13.832-3.957A7.526,7.526,0,0,1,9.032,18.655Zm4.082-5.575c-.222-.113-1.323-.653-1.529-.726s-.355-.113-.5.113-.577.726-.71.879-.262.169-.484.056a6.091,6.091,0,0,1-3.046-2.662c-.23-.4.23-.367.658-1.222a.415.415,0,0,0-.02-.391c-.056-.113-.5-1.214-.69-1.662s-.367-.375-.5-.383-.278-.008-.428-.008a.829.829,0,0,0-.6.278A2.514,2.514,0,0,0,4.477,9.22a4.384,4.384,0,0,0,.912,2.315,10,10,0,0,0,3.824,3.38,4.379,4.379,0,0,0,2.686.561,2.292,2.292,0,0,0,1.509-1.065,1.871,1.871,0,0,0,.129-1.065C13.485,13.246,13.336,13.19,13.114,13.081Z" transform="translate(58 11.75)" fill="#fff"/>
  </g>
</svg>
