<?xml version="1.0" encoding="utf-8"?>
<!-- Generator: Adobe Illustrator 17.0.0, SVG Export Plug-In . SVG Version: 6.00 Build 0)  -->
<!DOCTYPE svg PUBLIC "-//W3C//DTD SVG 1.1//EN" "http://www.w3.org/Graphics/SVG/1.1/DTD/svg11.dtd">
<svg version="1.1" id="Camada_1" xmlns="http://www.w3.org/2000/svg" xmlns:xlink="http://www.w3.org/1999/xlink" x="0px" y="0px"
	 width="25.381px" height="23.148px" viewBox="0 0 25.381 23.148" enable-background="new 0 0 25.381 23.148" xml:space="preserve">
<g id="Grupo_105" transform="translate(0.6 0.6)">
	<g id="Linha_30">
		<path fill="#A5ADB7" d="M24.181,3.812H0c-0.332,0-0.6-0.269-0.6-0.6s0.269-0.6,0.6-0.6h24.181c0.331,0,0.6,0.269,0.6,0.6
			S24.512,3.812,24.181,3.812z"/>
	</g>
	<g id="Linha_31">
		<path fill="#A5ADB7" d="M24.181,11.574H0c-0.332,0-0.6-0.268-0.6-0.6s0.269-0.6,0.6-0.6h24.181c0.331,0,0.6,0.269,0.6,0.6
			S24.512,11.574,24.181,11.574z"/>
	</g>
	<g id="Linha_32">
		<path fill="#A5ADB7" d="M24.181,19.335H0c-0.332,0-0.6-0.269-0.6-0.6s0.269-0.6,0.6-0.6h24.181c0.331,0,0.6,0.269,0.6,0.6
			S24.512,19.335,24.181,19.335z"/>
	</g>
	<g id="Caminho_168">
		<path fill="#A5ADB7" d="M5.513,7.024c-0.001,0-0.015,0-0.016,0c-1.221,0-2.217-0.987-2.226-2.202V1.606
			C3.28,0.388,4.275-0.6,5.489-0.6c1.238,0,2.233,0.988,2.242,2.202v3.217C7.722,6.036,6.727,7.024,5.513,7.024z M5.513,0.6
			c-0.581,0-1.038,0.453-1.042,1.01v3.208c0.004,0.553,0.461,1.006,1.019,1.006h0.023c0.557,0,1.014-0.453,1.018-1.01V1.606
			C6.527,1.053,6.07,0.6,5.513,0.6z"/>
	</g>
	<g id="Caminho_169">
		<path fill="#A5ADB7" d="M19.326,14.785c-0.002,0-0.016,0-0.018,0c-1.223,0-2.217-0.987-2.225-2.201V9.368
			c0.008-1.218,1.002-2.206,2.217-2.206c1.238,0,2.233,0.988,2.242,2.202v3.217C21.534,13.798,20.539,14.785,19.326,14.785z
			 M19.326,8.362c-0.583,0-1.039,0.453-1.043,1.01v3.208c0.004,0.553,0.46,1.006,1.018,1.006h0.025c0.557,0,1.013-0.453,1.018-1.011
			V9.368C20.339,8.815,19.882,8.362,19.326,8.362z"/>
	</g>
	<g id="Caminho_170">
		<path fill="#A5ADB7" d="M12.103,22.547c-0.001,0-0.016,0-0.017,0c-1.222,0-2.217-0.987-2.226-2.201V17.13
			c0.009-1.219,1.003-2.206,2.217-2.206c1.239,0,2.234,0.987,2.243,2.201v3.217C14.311,21.56,13.316,22.547,12.103,22.547z
			 M12.103,16.123c-0.583,0-1.039,0.454-1.042,1.011v3.208c0.004,0.553,0.46,1.006,1.017,1.006h0.025
			c0.557,0,1.013-0.453,1.018-1.011V17.13C13.116,16.577,12.66,16.123,12.103,16.123z"/>
	</g>
</g>
</svg>
