<svg xmlns="http://www.w3.org/2000/svg" width="14.932" height="14.554" viewBox="0 0 14.932 14.554">
  <g id="Grupo_146" data-name="Grupo 146" transform="translate(-17.286 -18)">
    <path id="Icon_awesome-arrow-right" data-name="Icon awesome-arrow-right" d="M6.349,3.622l.74-.74a.8.8,0,0,1,1.13,0L14.7,9.358a.8.8,0,0,1,0,1.13L8.218,16.966a.8.8,0,0,1-1.13,0l-.74-.74a.8.8,0,0,1,.013-1.143l4.016-3.826H.8a.8.8,0,0,1-.8-.8V9.391a.8.8,0,0,1,.8-.8h9.578L6.362,4.765A.8.8,0,0,1,6.349,3.622Z" transform="translate(17.286 15.353)" fill="#a5adb7"/>
  </g>
</svg>
