<svg id="Icon_ionic-ios-link" data-name="Icon ionic-ios-link" xmlns="http://www.w3.org/2000/svg" width="14.94" height="14.932" viewBox="0 0 14.94 14.932">
  <path id="Caminho_172" data-name="Caminho 172" d="M11.7,18.615l-.043,0a.594.594,0,0,0-.345.162L9,21.1a2.614,2.614,0,0,1-3.7-3.7l2.462-2.462a2.6,2.6,0,0,1,.409-.334,2.638,2.638,0,0,1,.531-.269A2.513,2.513,0,0,1,9.24,14.2a2.545,2.545,0,0,1,.366-.025c.05,0,.1,0,.165.007a2.607,2.607,0,0,1,1.68.754,2.574,2.574,0,0,1,.614.98.565.565,0,0,0,.693.363s.007,0,.011,0,.007,0,.007,0a.561.561,0,0,0,.377-.686,3.253,3.253,0,0,0-.883-1.472A3.779,3.779,0,0,0,10.2,13.065c-.068-.011-.136-.022-.2-.029a3.7,3.7,0,0,0-.4-.022c-.093,0-.187,0-.276.011a3.62,3.62,0,0,0-.582.09c-.039.007-.075.018-.115.029a3.734,3.734,0,0,0-.7.262,3.687,3.687,0,0,0-.994.714L4.47,16.583a3.786,3.786,0,0,0-1.095,2.674,3.774,3.774,0,0,0,6.44,2.667l2.344-2.344A.568.568,0,0,0,11.7,18.615Z" transform="translate(-3.375 -8.094)" fill="#8a8a8a"/>
  <path id="Caminho_173" data-name="Caminho 173" d="M22.146,4.477a3.783,3.783,0,0,0-5.338,0L14.522,6.764a.577.577,0,0,0,.363.984.583.583,0,0,0,.456-.165L17.63,5.3a2.614,2.614,0,0,1,3.7,3.7l-2.462,2.462a2.6,2.6,0,0,1-.409.334,2.638,2.638,0,0,1-.531.269,2.513,2.513,0,0,1-.538.133,2.545,2.545,0,0,1-.366.025c-.05,0-.1,0-.165-.007a2.58,2.58,0,0,1-2.269-1.669.573.573,0,0,0-.686-.352.58.58,0,0,0-.406.736,3.279,3.279,0,0,0,.851,1.346h0l.007.007a3.779,3.779,0,0,0,2.272,1.08,3.7,3.7,0,0,0,.4.022q.14,0,.28-.011A4.1,4.1,0,0,0,18,13.257a3.734,3.734,0,0,0,.7-.262,3.687,3.687,0,0,0,.994-.714l2.462-2.462a3.778,3.778,0,0,0-.007-5.341Z" transform="translate(-8.315 -3.375)" fill="#8a8a8a"/>
</svg>
