<?xml version="1.0" encoding="utf-8"?>
<!-- Generator: Adobe Illustrator 17.0.0, SVG Export Plug-In . SVG Version: 6.00 Build 0)  -->
<!DOCTYPE svg PUBLIC "-//W3C//DTD SVG 1.1//EN" "http://www.w3.org/Graphics/SVG/1.1/DTD/svg11.dtd">
<svg version="1.1" id="Camada_1" xmlns="http://www.w3.org/2000/svg" xmlns:xlink="http://www.w3.org/1999/xlink" x="0px" y="0px"
	 width="15.865px" height="13.207px" viewBox="0 0 15.865 13.207" enable-background="new 0 0 15.865 13.207" xml:space="preserve">
<g id="Icon_feather-menu" transform="translate(1 1)">
	<g id="Caminho_1">
		<path fill="#455465" d="M13.506,6.603H4c-0.552,0-1-0.447-1-1s0.448-1,1-1h9.506c0.553,0,1,0.448,1,1S14.058,6.603,13.506,6.603z"
			/>
	</g>
	<g id="Caminho_2">
		<path fill="#455465" d="M13.865,1H0c-0.552,0-1-0.448-1-1s0.448-1,1-1h13.865c0.553,0,1,0.448,1,1S14.418,1,13.865,1z"/>
	</g>
	<g id="Caminho_3">
		<path fill="#455465" d="M13.865,12.207H0c-0.552,0-1-0.447-1-1s0.448-1,1-1h13.865c0.553,0,1,0.447,1,1
			S14.418,12.207,13.865,12.207z"/>
	</g>
</g>
</svg>
