<?xml version="1.0" encoding="utf-8"?>
<!-- Generator: Adobe Illustrator 17.0.0, SVG Export Plug-In . SVG Version: 6.00 Build 0)  -->
<!DOCTYPE svg PUBLIC "-//W3C//DTD SVG 1.1//EN" "http://www.w3.org/Graphics/SVG/1.1/DTD/svg11.dtd">
<svg version="1.1" id="Camada_1" xmlns="http://www.w3.org/2000/svg" xmlns:xlink="http://www.w3.org/1999/xlink" x="0px" y="0px"
	 width="18.874px" height="18.874px" viewBox="0 0 18.874 18.874" enable-background="new 0 0 18.874 18.874" xml:space="preserve">
<g id="Grupo_25" transform="translate(0.5 0.707)">
	<g id="Caminho_51">
		<path fill="#BFBFBF" d="M12.253,18.165c-0.202,0-0.385-0.121-0.462-0.31L8.293,9.378l-8.48-3.498
			C-0.382,5.8-0.505,5.606-0.496,5.395s0.151-0.393,0.353-0.455l17.664-5.418c0.176-0.054,0.37-0.006,0.5,0.125
			c0.131,0.131,0.179,0.323,0.125,0.5l-5.414,17.665c-0.063,0.202-0.244,0.343-0.455,0.353
			C12.269,18.165,12.261,18.165,12.253,18.165z M1.483,5.487l7.384,3.045C8.99,8.584,9.088,8.681,9.139,8.804l3.045,7.381
			l4.729-15.431L1.483,5.487z"/>
	</g>
	<g id="Linha_11">
		<path fill="#BFBFBF" d="M8.672,9.497c-0.128,0-0.256-0.048-0.354-0.146c-0.195-0.196-0.195-0.512,0-0.708l8.996-8.997
			c0.195-0.195,0.512-0.195,0.707,0s0.195,0.512,0,0.707L9.025,9.351C8.928,9.448,8.8,9.497,8.672,9.497z"/>
	</g>
</g>
</svg>
