<!-- Generator: Adobe Illustrator 17.0.0, SVG Export Plug-In  -->
<svg version="1.1"
	 xmlns="http://www.w3.org/2000/svg" xmlns:xlink="http://www.w3.org/1999/xlink" xmlns:a="http://ns.adobe.com/AdobeSVGViewerExtensions/3.0/"
	 x="0px" y="0px" width="152.974px" height="31.151px" viewBox="0 0 152.974 31.151" enable-background="new 0 0 152.974 31.151"
	 xml:space="preserve">
<defs>
</defs>
<g>
	<path fill="#15427F" d="M152.091,7.102c-0.581-1.347-1.384-2.538-2.386-3.54c-1.002-1.001-2.187-1.804-3.524-2.385
		c-1.348-0.586-2.811-0.883-4.348-0.883c-1.519,0-2.972,0.297-4.32,0.883c-1.338,0.582-2.524,1.385-3.525,2.385
		c-1.002,1.002-1.804,2.193-2.386,3.54c-0.585,1.357-0.882,2.814-0.882,4.332c0,1.536,0.297,2.999,0.883,4.347
		c0.582,1.338,1.384,2.524,2.385,3.524c1,1.001,2.186,1.803,3.525,2.386c1.348,0.586,2.801,0.883,4.32,0.883
		c1.537,0,2.999-0.298,4.348-0.883c1.337-0.582,2.523-1.384,3.524-2.386c1.001-1.001,1.804-2.187,2.385-3.524
		c0.586-1.348,0.883-2.81,0.883-4.347C152.974,9.916,152.677,8.459,152.091,7.102 M141.847,17.236c-0.754,0-1.466-0.155-2.116-0.464
		c-0.669-0.315-1.262-0.746-1.762-1.277c-0.504-0.535-0.909-1.163-1.204-1.864c-0.29-0.689-0.437-1.428-0.437-2.197
		c0-0.752,0.147-1.488,0.439-2.187c0.295-0.707,0.698-1.332,1.198-1.857c0.501-0.524,1.095-0.951,1.767-1.268
		c0.651-0.307,1.363-0.463,2.116-0.463c0.753,0,1.464,0.156,2.115,0.463c0.672,0.317,1.266,0.744,1.766,1.268
		c0.5,0.525,0.904,1.149,1.198,1.856c0.292,0.7,0.439,1.436,0.439,2.187c0,0.767-0.147,1.507-0.438,2.197
		c-0.295,0.701-0.7,1.328-1.204,1.864c-0.5,0.531-1.093,0.962-1.762,1.277C143.312,17.08,142.601,17.236,141.847,17.236"/>
	<path fill="#15427F" d="M85.602,20.539l-7.834-9.578l6.734-9.188c0.217-0.28,0.259-0.667,0.104-0.988
		c-0.156-0.323-0.49-0.532-0.849-0.532h-4.414c-0.291,0-0.561,0.131-0.741,0.36c-0.003,0.003-0.005,0.007-0.008,0.011
		c-3.588,4.827-10.835,14.305-12.581,15.624c-0.324,0.244-0.715,0.453-1.23,0.655c-0.436,0.171-0.89,0.288-1.351,0.345
		c-0.445,0.056-0.904,0.043-1.355-0.038c-0.744-0.133-1.419-0.412-2.008-0.829c-0.605-0.429-1.111-0.951-1.503-1.552
		c-0.395-0.605-0.681-1.289-0.849-2.032c-0.166-0.729-0.181-1.482-0.046-2.239c0.132-0.741,0.407-1.439,0.817-2.075
		c0.416-0.646,0.921-1.193,1.501-1.623c0.576-0.428,1.23-0.743,1.947-0.936c0.347-0.093,0.731-0.139,1.173-0.139
		c0.294,0,0.614,0.019,1.036,0.061c1.211,0.122,2.91,1.348,3.72,2.051l0.022,0.019c0.038,0.032,0.081,0.058,0.126,0.078
		c0.116,0.059,0.247,0.091,0.385,0.091c0.283,0,0.555-0.128,0.727-0.342l2.135-2.636c0.166-0.206,0.235-0.473,0.19-0.734
		c-0.04-0.234-0.262-0.473-0.328-0.539c-0.246-0.264-0.449-0.45-0.737-0.701c-0.728-0.634-1.553-1.178-2.452-1.615
		c-0.902-0.439-1.874-0.752-2.888-0.933c-1.488-0.265-2.986-0.228-4.408,0.11c-1.419,0.338-2.728,0.919-3.889,1.729
		c-1.161,0.81-2.159,1.836-2.967,3.051c-0.813,1.223-1.361,2.602-1.629,4.098c-0.266,1.495-0.229,2.978,0.111,4.408
		c0.338,1.42,0.919,2.729,1.728,3.888c0.809,1.161,1.835,2.16,3.051,2.968c1.224,0.814,2.603,1.362,4.098,1.629
		c0.654,0.117,1.316,0.176,1.968,0.176c0.356,0,0.714-0.017,1.064-0.052c0.993-0.098,1.955-0.323,2.859-0.667
		c0.899-0.342,1.754-0.798,2.544-1.357c0.757-0.535,1.442-1.174,2.041-1.901l2.596-3.225l5.467,6.456
		c0.004,0.006,0.009,0.011,0.014,0.016c0.178,0.193,0.43,0.304,0.693,0.304l4.554-0.003c0.52,0,0.945-0.478,0.945-0.998
		C85.886,20.959,85.783,20.716,85.602,20.539"/>
	<path fill="#15427F" d="M109.266,20.853L99.01,0.506C98.851,0.194,98.534,0,98.183,0h-0.384c-0.351,0-0.667,0.194-0.827,0.506
		L86.717,20.852c-0.147,0.287-0.134,0.635,0.034,0.909c0.168,0.274,0.472,0.444,0.793,0.444h4.168c0.353,0,0.681-0.205,0.833-0.517
		l5.444-10.851l5.449,10.852c0.158,0.319,0.477,0.516,0.833,0.516h4.168c0.321,0,0.625-0.17,0.793-0.444
		C109.4,21.487,109.413,21.139,109.266,20.853"/>
	<path fill="#15427F" d="M128.954,6.914c-0.543-1.373-1.358-2.56-2.424-3.529c-1.976-1.802-4.515-2.715-7.548-2.715h-7.76
		c-0.508,0-0.922,0.413-0.922,0.921v3.807c0,0.278,0.225,0.502,0.503,0.502h8.19c0.61,0,1.248,0.074,1.895,0.219
		c0.579,0.131,1.115,0.388,1.595,0.766c0.47,0.37,0.867,0.918,1.18,1.626c0.323,0.73,0.486,1.722,0.486,2.949
		c0,1.226-0.163,2.212-0.485,2.932c-0.315,0.706-0.712,1.257-1.18,1.638c-0.468,0.382-0.996,0.641-1.57,0.77
		c-0.648,0.146-1.294,0.22-1.922,0.22l-8.19,0.001c-0.278,0-0.503,0.225-0.503,0.503v3.752c0,0.508,0.413,0.922,0.922,0.922h7.76
		c1.495,0,2.894-0.226,4.158-0.671c1.286-0.452,2.426-1.131,3.389-2.016c1.067-0.969,1.883-2.157,2.425-3.529
		c0.533-1.348,0.804-2.878,0.804-4.546C129.757,9.783,129.487,8.263,128.954,6.914"/>
	<path fill="#15427F" d="M91.24,26.853h-0.701c-0.027,0-0.051,0.015-0.062,0.04l-1.38,3.125l-1.38-3.125
		c-0.011-0.025-0.035-0.04-0.062-0.04h-0.7c-0.023,0-0.045,0.011-0.057,0.031c-0.013,0.019-0.015,0.043-0.006,0.064l1.789,4.053
		c0.011,0.024,0.035,0.04,0.062,0.04h0.706c0.027,0,0.051-0.016,0.062-0.04l1.789-4.053c0.009-0.021,0.007-0.046-0.006-0.064
		C91.284,26.864,91.263,26.853,91.24,26.853"/>
	<path fill="#15427F" d="M99.52,26.853h-3.011c-0.038,0-0.068,0.03-0.068,0.068v4.053c0,0.037,0.03,0.068,0.068,0.068h3.011
		c0.038,0,0.068-0.03,0.068-0.068v-0.567c0-0.037-0.03-0.068-0.068-0.068h-2.26v-1.011h1.814c0.037,0,0.068-0.031,0.068-0.068
		v-0.568c0-0.037-0.03-0.068-0.068-0.068H97.26v-1.069h2.26c0.038,0,0.068-0.03,0.068-0.068V26.92
		C99.588,26.883,99.558,26.853,99.52,26.853"/>
	<path fill="#15427F" d="M106.931,25.654h-0.62c-0.027,0-0.051,0.015-0.062,0.04c-0.102,0.232-0.28,0.565-0.488,0.913
		c-0.012,0.021-0.012,0.047,0,0.068c0.012,0.021,0.035,0.034,0.059,0.034h0.382c0.014,0,0.028-0.005,0.039-0.013
		c0.351-0.254,0.736-0.852,0.757-0.963c0.004-0.02-0.002-0.04-0.014-0.056C106.971,25.663,106.952,25.654,106.931,25.654"/>
	<path fill="#15427F" d="M106.716,26.853h-0.683c-0.037,0-0.068,0.03-0.068,0.068v4.053c0,0.037,0.03,0.068,0.068,0.068h0.683
		c0.038,0,0.068-0.03,0.068-0.068V26.92C106.784,26.883,106.754,26.853,106.716,26.853"/>
	<path fill="#15427F" d="M114.67,27.584c0.419,0,0.786,0.149,1.033,0.418c0.024,0.027,0.066,0.029,0.093,0.006l0.515-0.428
		c0.014-0.011,0.023-0.029,0.024-0.047c0.002-0.018-0.004-0.036-0.016-0.05c-0.393-0.448-0.979-0.695-1.649-0.695
		c-1.28,0-2.175,0.895-2.175,2.176c0,1.281,0.895,2.175,2.175,2.175c0.671,0,1.256-0.247,1.649-0.695
		c0.012-0.014,0.018-0.032,0.016-0.05c-0.001-0.018-0.01-0.035-0.024-0.047l-0.515-0.428c-0.027-0.023-0.069-0.021-0.093,0.006
		c-0.247,0.27-0.614,0.418-1.033,0.418c-0.822,0-1.374-0.554-1.374-1.38C113.296,28.139,113.848,27.584,114.67,27.584"/>
	<path fill="#15427F" d="M125.247,26.853h-0.683c-0.037,0-0.068,0.03-0.068,0.068v2.432c0,0.603-0.389,0.992-0.992,0.992
		c-0.617,0-1.015-0.389-1.015-0.992V26.92c0-0.037-0.03-0.068-0.068-0.068h-0.683c-0.037,0-0.068,0.03-0.068,0.068v2.415
		c0,1.079,0.725,1.804,1.805,1.804c1.1,0,1.84-0.725,1.84-1.804V26.92C125.315,26.883,125.285,26.853,125.247,26.853"/>
	<path fill="#15427F" d="M133.983,30.309h-2.075V26.92c0-0.037-0.03-0.068-0.067-0.068h-0.683c-0.037,0-0.068,0.03-0.068,0.068
		v4.053c0,0.037,0.031,0.068,0.068,0.068h2.826c0.037,0,0.068-0.03,0.068-0.068v-0.596C134.051,30.34,134.021,30.309,133.983,30.309
		"/>
	<path fill="#15427F" d="M141.491,26.789c-1.281,0-2.176,0.895-2.176,2.176c0,1.281,0.895,2.175,2.176,2.175
		c1.277,0,2.169-0.894,2.169-2.175C143.66,27.683,142.768,26.789,141.491,26.789 M141.491,30.344c-0.825,0-1.38-0.554-1.38-1.38
		c0-0.826,0.555-1.38,1.38-1.38c0.825,0,1.38,0.555,1.38,1.38C142.87,29.79,142.316,30.344,141.491,30.344"/>
	<path fill="#15427F" d="M150.665,28.61c-0.507-0.159-1.021-0.367-0.995-0.707c0.015-0.243,0.282-0.394,0.697-0.394
		c0.038,0,0.08,0.003,0.105,0.005c0.014,0.001,0.024,0.001,0.022,0.001c0.555,0.053,0.891,0.254,1.042,0.369
		c0.015,0.011,0.035,0.016,0.054,0.012c0.019-0.004,0.035-0.015,0.045-0.032l0.313-0.527c0.018-0.03,0.009-0.07-0.02-0.09
		c-0.465-0.323-1.019-0.505-1.561-0.51h-0.021c-0.715,0-1.492,0.301-1.529,1.147c-0.031,0.761,0.573,1.11,1.489,1.399
		c0.497,0.157,1.001,0.363,0.96,0.703c-0.031,0.235-0.3,0.369-0.738,0.369c-0.527,0-0.999-0.142-1.367-0.41
		c-0.015-0.011-0.034-0.015-0.053-0.012c-0.018,0.003-0.034,0.014-0.044,0.029l-0.342,0.533c-0.02,0.031-0.012,0.071,0.018,0.092
		c0.539,0.373,1.145,0.562,1.799,0.562c0.963,0,1.53-0.42,1.556-1.154C152.123,29.148,151.371,28.836,150.665,28.61"/>
	<path fill="#15427F" d="M50,0.681h-3.765c-0.508,0-0.921,0.414-0.921,0.922v11.705c0,0.835-0.13,1.519-0.386,2.031
		c-0.261,0.52-0.578,0.93-0.945,1.22c-0.373,0.295-0.775,0.5-1.195,0.61c-0.468,0.122-0.882,0.184-1.232,0.184
		c-0.35,0-0.765-0.062-1.233-0.185c-0.42-0.109-0.822-0.315-1.195-0.61c-0.366-0.29-0.683-0.7-0.944-1.22
		c-0.257-0.512-0.387-1.196-0.387-2.031V1.603c0-0.508-0.413-0.922-0.921-0.922h-3.765c-0.508,0-0.921,0.414-0.921,0.922v11.724
		c0,1.366,0.226,2.628,0.669,3.753c0.45,1.14,1.096,2.126,1.922,2.93c0.823,0.804,1.825,1.432,2.979,1.869
		c1.14,0.433,2.417,0.652,3.796,0.652c1.396,0,2.682-0.219,3.823-0.652c1.153-0.437,2.156-1.066,2.979-1.869
		c0.827-0.806,1.469-1.794,1.91-2.937c0.434-1.124,0.654-2.384,0.654-3.747V1.603C50.921,1.095,50.508,0.681,50,0.681"/>
	<g>
		<path fill="#15427F" d="M19.761,0.41c-3.328-0.002-9.135-0.003-18.84-0.005C0.413,0.405,0,0.822,0,1.334v3.36
			c0,0.512,0.413,0.928,0.921,0.928h4.726v15.545c0,0.512,0.413,0.928,0.921,0.928h3.765c0.508,0,0.922-0.416,0.922-0.928V5.622
			h4.507L19.761,0.41z"/>
		<path fill="#15427F" d="M31.556,20.622c-0.669-0.929-1.329-1.862-1.968-2.765c-0.69-0.976-1.401-1.98-2.145-3.011
			c0.933-0.553,1.719-1.303,2.341-2.239c0.846-1.27,1.274-2.765,1.274-4.445c0-1.106-0.189-2.147-0.564-3.094
			c-0.376-0.951-0.91-1.784-1.587-2.476c-0.68-0.694-1.507-1.239-2.458-1.62c-0.829-0.331-1.742-0.519-2.714-0.559l0,0.003
			c-0.125-0.003-0.785-0.004-2.35-0.006l-3.999,5.211h5.956c0.472,0,0.848,0.081,1.085,0.233c0.27,0.174,0.477,0.381,0.617,0.615
			c0.156,0.265,0.262,0.543,0.313,0.828c0.062,0.341,0.093,0.632,0.093,0.864c0,0.424-0.067,0.786-0.198,1.079
			c-0.139,0.307-0.312,0.564-0.515,0.762c-0.19,0.187-0.41,0.327-0.653,0.417c-0.262,0.097-0.512,0.146-0.741,0.146h-3.987
			c-0.506,0-0.717,0.269-0.799,0.43c-0.153,0.304-0.09,0.687,0.173,1.051c0.436,0.603,6.523,9.072,6.992,9.686
			c0.173,0.227,0.446,0.362,0.73,0.362h4.358c0.348,0,0.663-0.195,0.82-0.507C31.789,21.276,31.76,20.905,31.556,20.622z"/>
	</g>
</g>
</svg>
