<svg xmlns="http://www.w3.org/2000/svg" viewBox="0 0 150 28.19" style="fill:#ddb32b;max-width:150px">
  <path class="cls-1" d="m58.85.54c-.64,0-1.16.52-1.16,1.16v14.73c0,1.05-.16,1.91-.49,2.56s-.73,1.17-1.19,1.54c-.47.37-.98.63-1.5.77-.59.15-1.11.23-1.55.23s-.96-.08-1.55-.23c-.53-.14-1.03-.4-1.5-.77-.46-.36-.86-.88-1.19-1.54-.32-.64-.49-1.51-.49-2.56V1.7c0-.64-.52-1.16-1.16-1.16h-4.74c-.64,0-1.16.52-1.16,1.16v14.76c0,1.72.28,3.31.84,4.72.57,1.44,1.38,2.68,2.42,3.69,1.04,1.01,2.3,1.8,3.75,2.35,1.43.54,3.04.82,4.78.82s3.38-.28,4.81-.82c1.45-.55,2.71-1.34,3.75-2.35s1.85-2.26,2.4-3.7c.55-1.41.82-3,.82-4.72V1.7c0-.64-.52-1.16-1.16-1.16,0,0-4.73,0-4.73,0Z"/>
  <path class="cls-1" d="m26.95,1.84l-3.77,4.92h6.86c.59,0,1.07.1,1.37.29.34.22.6.48.78.77.2.33.33.68.39,1.04.08.43.12.8.12,1.09,0,.53-.08.99-.25,1.36-.18.39-.39.71-.65.96-.24.24-.52.41-.82.52-.33.12-.64.18-.93.18h-5.02c-.64,0-.9.34-1.01.54-.19.38-.11.86.22,1.32.55.76,8.21,11.42,8.8,12.19.22.29.56.46.92.46h5.49c.44,0,.83-.24,1.03-.64.2-.39.16-.86-.09-1.22-.84-1.17-1.67-2.34-2.48-3.48-.87-1.23-1.76-2.49-2.7-3.79,1.17-.7,2.16-1.64,2.95-2.82,1.06-1.6,1.6-3.48,1.6-5.59,0-1.39-.24-2.7-.71-3.89-.47-1.2-1.15-2.25-2-3.12-.86-.87-1.9-1.56-3.09-2.04-1.04-.42-2.19-.65-3.42-.7h0c-.14,0-.8-.01-2.31-.01l-1.28,1.66Z"/>
  <path class="cls-1" d="m0,1.21v4.36c0,.67.54,1.21,1.2,1.21h6.14v20.2c0,.67.54,1.21,1.2,1.21h4.89c.66,0,1.2-.54,1.2-1.21V6.78h6.45L26.33.01C22.12,0,14.46,0,1.2,0,.54,0,0,.54,0,1.21"/>
  <path class="cls-1" d="m100.6,0c-.37,0-.71.17-.93.45h-.01c-4.52,6.09-13.64,18.01-15.83,19.67-.41.31-.9.57-1.55.82-.55.22-1.12.36-1.7.43-.56.07-1.14.05-1.71-.05-.94-.17-1.79-.52-2.53-1.04-.76-.54-1.4-1.2-1.89-1.95-.5-.76-.86-1.62-1.07-2.56-.21-.92-.23-1.86-.06-2.82.17-.93.51-1.81,1.03-2.61.52-.81,1.16-1.5,1.89-2.04.72-.54,1.55-.93,2.45-1.18.44-.12.92-.17,1.48-.17.37,0,.77.02,1.3.08,1.52.15,3.66,1.7,4.68,2.58l.03.02c.05.04.1.07.16.1.15.07.31.11.48.11.36,0,.7-.16.91-.43l2.69-3.32c.21-.26.3-.6.24-.92-.05-.29-.33-.6-.41-.68-.31-.33-.57-.57-.93-.88-.92-.8-1.95-1.48-3.09-2.03s-2.36-.95-3.63-1.17c-1.87-.33-3.76-.29-5.55.14-1.79.43-3.43,1.16-4.9,2.18-1.46,1.02-2.72,2.31-3.73,3.84-1.02,1.54-1.71,3.28-2.05,5.16-.34,1.88-.29,3.75.14,5.55.42,1.79,1.16,3.43,2.18,4.89s2.31,2.72,3.84,3.73c1.54,1.02,3.28,1.71,5.16,2.05.82.15,1.66.22,2.48.22.45,0,.9-.02,1.34-.07,1.25-.12,2.46-.41,3.6-.84,1.13-.43,2.21-1,3.2-1.71.95-.67,1.82-1.48,2.57-2.39l3.27-4.06,6.88,8.13s.01.01.02.02c.22.24.54.38.87.38h5.73c.65,0,1.19-.6,1.19-1.26,0-.32-.13-.63-.36-.85l-9.86-12.05,8.48-11.56c.27-.35.33-.84.13-1.24-.2-.41-.62-.67-1.07-.67,0,0-5.56,0-5.56,0Z"/>
  <path class="cls-1" d="m116.23,0h-4.82c-.64,0-1.16.55-1.16,1.22v25.04c0,.68.52,1.22,1.16,1.22h19.28c.63.01,1.14-.53,1.14-1.2v-4.38c0-.67-.51-1.21-1.14-1.21h-13.31v-3.57h9.34c.55,0,1-.54,1-1.21v-4.38c0-.67-.45-1.21-1-1.21h-9.34v-3.53h9.47L121.61,0h-5.38Z"/>
  <path class="cls-1" d="m123.68.01l5.25,6.77h6.45v20.2c0,.67.51.53,1.17.53h4.89c.66,0,1.22.13,1.22-.53V6.78h6.14c.66,0,1.2-.54,1.2-1.21V1.21C150,.54,149.46,0,148.8,0,135.54,0,127.88,0,123.68.01"/>
</svg>